<svg xmlns="http://www.w3.org/2000/svg" viewBox="0 0 24 24" fill="none">
  <defs>
    <linearGradient id="gradient" x1="0%" y1="0%" x2="100%" y2="100%">
      <stop offset="0%" style="stop-color:#9333ea;stop-opacity:1" />
      <stop offset="100%" style="stop-color:#2563eb;stop-opacity:1" />
    </linearGradient>
  </defs>
  <!-- Main sparkle -->
  <path fill="url(#gradient)" d="M12 2L13.5 8.5L20 10L13.5 11.5L12 18L10.5 11.5L4 10L10.5 8.5L12 2Z"/>
  <!-- Small sparkle top right -->
  <path fill="url(#gradient)" d="M18 4L18.5 5.5L20 6L18.5 6.5L18 8L17.5 6.5L16 6L17.5 5.5L18 4Z"/>
  <!-- Small sparkle bottom left -->
  <path fill="url(#gradient)" d="M6 16L6.5 17.5L8 18L6.5 18.5L6 20L5.5 18.5L4 18L5.5 17.5L6 16Z"/>
  <!-- Tiny sparkle bottom right -->
  <path fill="url(#gradient)" d="M19 19L19.3 19.7L20 20L19.3 20.3L19 21L18.7 20.3L18 20L18.7 19.7L19 19Z"/>
</svg>
